<svg id="Layer_1" data-name="Layer 1" xmlns="http://www.w3.org/2000/svg" viewBox="0 0 971.44 348.17"><defs><style>.cls-1{fill:#1f3c70;}</style></defs><title>logo</title><path class="cls-1" d="M433.46,604.31c-19.79,0-39.58.16-59.36-.11-5.49-.08-6.57,1.24-5.08,6.61,3.84,13.81,11.28,21.44,24.29,22.89,14.89,1.67,29.24,1.19,37-14.83,1.44-3,3-3.24,5.67-2.46,19,5.5,37.91,11.08,56.94,16.34,4.55,1.26,3.36,3.67,2.3,6.46-7.72,20.19-22.28,33.95-42.12,41.22-36.5,13.37-73.33,13-109.34-1.92-28.93-12-45.16-34.9-51-65.11-4.47-23.08-4-46.22,3.56-68.75,11.17-33.1,34.94-52.18,68.5-59.16,28.22-5.88,56.36-5.48,83.39,6,28.67,12.17,44.47,34.68,50.26,64.73,2.61,13.52,2.49,27.17,1.45,40.86-.4,5.16-1.8,7.56-7.84,7.41C472.56,604,453,604.31,433.46,604.31ZM397,569.06c8,0,16.09,0,24.14,0,1.82,0,3.79.51,4.08-2.62,1.33-14.54-11.65-29.27-26.28-29.58-17.49-.37-28.6,9.64-30.8,27.45-.43,3.46.26,4.91,4,4.82C380.4,568.93,388.69,569.06,397,569.06Z" transform="translate(-54.28 -341.91)"/><path class="cls-1" d="M171.23,631.12,195,525c2.5-11.18,5.07-22.35,7.43-33.56.8-3.81,2.13-5.7,6.64-5.65q35.91.39,71.81,0c5.87-.07,5.73,1.85,4.18,6.39q-21.88,64-43.47,128.07c-6.72,19.85-13.53,39.68-20.08,59.59-1.32,4-3,5.67-7.57,5.63q-44-.36-87.94,0c-4.21,0-5.93-1.42-7.2-5.18Q87.2,586.7,55.32,493.31c-2.15-6.28-1.26-7.71,5.45-7.6,22.71.39,45.43.35,68.15,0,6.07-.09,8.68,1.28,10.07,7.8,9.56,44.81,19.68,89.5,29.62,134.24.25,1.1.63,2.17.94,3.25Z" transform="translate(-54.28 -341.91)"/><path class="cls-1" d="M952.18,569.58c-.79-4.57-1.31-8.18-2-11.74-2.68-12.88-8.44-19.05-18.83-20.33-12-1.48-23.56,3.91-27.55,15-7.94,22-8.19,44.65-.11,66.67,4.2,11.44,14.3,15.23,26.15,14.76,11-.44,17.49-6.4,20.88-16.39a42.45,42.45,0,0,0,2.22-7.7c.48-3.5,1.69-4.59,5.28-3.44,21.13,6.76,42.28,13.45,63.5,19.9,3.95,1.21,4,3.32,3.43,6.56-3.34,19.66-15.28,32.95-32,42.17-25.56,14.07-53.38,16.26-81.77,13.72A127.14,127.14,0,0,1,871,678.8c-26.44-11.64-43-31.76-49.77-59.47s-6.09-55.3,5-81.92c10.86-26.11,31-42.72,57.75-49.9,33.28-8.91,66.83-8.23,99.26,4.4,22.89,8.92,37.83,25.32,42.27,50.25.56,3.18.42,4.89-3,5.93C999.11,555.13,975.84,562.32,952.18,569.58Z" transform="translate(-54.28 -341.91)"/><path class="cls-1" d="M545.49,587.72c0-13.43-.18-26.87.09-40.29.1-4.58-.87-6.53-5.92-6.2-7,.45-14.16,0-21.24.17-3.54.09-5.3-.63-5.24-4.76.21-15.38.15-30.77,0-46.15,0-3.48,1.19-4.76,4.67-4.68,7.56.17,15.14-.13,22.7.12,3.86.13,5.06-1.13,5-5-.22-11.23.11-22.47-.17-33.7-.11-4,1.36-5.37,5-6.36q35.29-9.48,70.47-19.43c4-1.14,5.49-.5,5.43,4.13-.25,18.06.05,36.14-.2,54.21-.07,4.8,1.32,6.27,6.17,6.17,14.16-.31,28.33.09,42.48-.22,4.89-.11,6.22,1.43,6.12,6.21-.29,14.41-.36,28.82,0,43.22.15,5.44-1.82,6.38-6.69,6.27-13.91-.31-27.84,0-41.75-.19-4.39-.07-6.48.56-6.39,5.82.32,21,0,42,.2,63,.21,17.46,8.56,25.27,26.19,25a53,53,0,0,0,20.6-4.46c3.62-1.59,5.5-2.08,5.9,3.1.95,12.41,2.3,24.79,3.94,37.13.55,4.16-1.4,5.61-4.51,7.09-22.23,10.63-45.71,13.28-69.91,10.86-12.18-1.22-24.09-3.75-34.93-9.88-20.7-11.7-26.94-31.16-27.93-53.07-.58-12.68-.11-25.4-.11-38.09Z" transform="translate(-54.28 -341.91)"/><path class="cls-1" d="M786.81,585.49c0,31-.15,62,.14,93,0,5.57-1.47,6.92-6.93,6.85-22.7-.32-45.41-.27-68.12,0-4.88,0-6.64-.92-6.62-6.29q.3-93.76,0-187.52c0-5.1,1.31-6.57,6.45-6.51q34.43.4,68.85,0c5.42-.07,6.35,1.88,6.32,6.73C786.72,523,786.81,554.23,786.81,585.49Z" transform="translate(-54.28 -341.91)"/><path class="cls-1" d="M745.57,468.57c-5.09-.46-10.24-.58-15.27-1.42-22.38-3.74-31.09-14.86-28.93-40.07,1.55-18,9.79-26,28.29-29a93,93,0,0,1,38.45,1.33c13.67,3.52,20.45,11.42,22.31,25.6a63.39,63.39,0,0,1,.13,14.57c-1.35,13.75-8.45,22.28-21.81,26C761.11,467.74,753.42,468.28,745.57,468.57Z" transform="translate(-54.28 -341.91)"/><path class="cls-1" d="M702.22,363.86c-.11-11.58,5-19.51,12.83-21.56,7-1.82,15.93,2.94,20.49,10.89,3.25,5.66,4.76,11.73,3.68,18.21-1.18,7.09-4.27,13-11.61,15.38-7,2.23-12.75-.41-17.79-5.42A26.5,26.5,0,0,1,702.22,363.86Z" transform="translate(-54.28 -341.91)"/><path class="cls-1" d="M750.3,366.65a25.78,25.78,0,0,1,12.13-21.88c8.63-5.62,19.6-1.94,23.54,7.6,4.3,10.42.34,24.93-8.76,31.58-5.3,3.87-11.19,5.05-17.19,1.94C752.72,382.1,750.41,375.37,750.3,366.65Z" transform="translate(-54.28 -341.91)"/><path class="cls-1" d="M787.21,393.81c.36-11.87,9.93-22.61,19.85-22.29,8.18.26,14.36,8,13.87,17.43-.64,12.39-9.63,22.32-20,22.11C792.44,410.88,786.91,403.92,787.21,393.81Z" transform="translate(-54.28 -341.91)"/><path class="cls-1" d="M702.85,397.69c-.17,6.13-2.37,11.92-9.44,14.91s-12.57-.26-17-4.93c-6.21-6.51-9-14.47-6.14-23.49,3.11-9.86,12.81-13.23,21.67-7.77C698.44,380.44,702.85,388.64,702.85,397.69Z" transform="translate(-54.28 -341.91)"/></svg>